<?xml version="1.0" encoding="UTF-8" standalone="no"?> <svg width="64" height="64" viewBox="0 0 64 64" fill="none" xmlns="http://www.w3.org/2000/svg">
<path d="M53.0436 21.7835C52.4431 17.8809 49.0851 15 45.1366 15H35.6976C34.5783 15 33.4714 14.7651 32.4485 14.3105L26.5513 11.6895C25.5285 11.2349 24.4216 11 23.3022 11H15.1374C10.2991 11 6.56812 15.2614 7.20757 20.0573L9.07424 34.0573C9.60417 38.0318 12.9944 41 17.0041 41H46.675C51.5781 41 55.3276 36.6296 54.582 31.7835L53.0436 21.7835Z" fill="#686666"/>
<path d="M11.8677 39.1334C10.9231 38.0056 10.2809 36.608 10.0742 35.0573L8.20749 21.0573C7.56804 16.2614 11.299 12 16.1373 12H24.3021C25.4215 12 26.5284 12.2349 27.5512 12.6895L33.4485 15.3105C34.4713 15.7651 35.5782 16 36.6976 16H46.1365C48.077 16 49.8749 16.6958 51.2729 17.8667C49.7953 16.1022 47.5789 15 45.1365 15H35.6976C34.5782 15 33.4713 14.7651 32.4485 14.3105L26.5512 11.6895C25.5284 11.2349 24.4215 11 23.3021 11H15.1373C10.299 11 6.56804 15.2614 7.20749 20.0573L9.07416 34.0573C9.34737 36.1064 10.3809 37.8881 11.8677 39.1334Z" fill="#999494"/>
<path fill-rule="evenodd" clip-rule="evenodd" d="M5.22517 20.3216L7.09184 34.3216C7.75425 39.2897 11.9921 43 17.0041 43H46.6751C52.804 43 57.4908 37.537 56.5588 31.4794L55.0204 21.4794C54.2698 16.6011 50.0723 13 45.1366 13H35.6977C34.8582 13 34.028 12.8238 33.2609 12.4829L27.3637 9.86189C26.0851 9.29362 24.7015 9 23.3023 9H15.1375C9.08956 9 4.42586 14.3268 5.22517 20.3216ZM45.1366 15C49.0852 15 52.4432 17.8809 53.0436 21.7835L54.5821 31.7835C55.3276 36.6296 51.5782 41 46.6751 41H17.0041C12.9945 41 9.60423 38.0318 9.0743 34.0573L7.20763 20.0573C6.56818 15.2614 10.2991 11 15.1375 11H23.3023C24.4216 11 25.5285 11.2349 26.5514 11.6895L32.4486 14.3105C33.4715 14.7651 34.5784 15 35.6977 15H45.1366Z" fill="#433D3D"/>
<path d="M7.20749 28.0573C6.56804 23.2614 10.299 19 15.1373 19H40.9957C45.0053 19 48.3956 21.9682 48.9255 25.9427L50.7922 39.9427C51.4317 44.7386 47.7007 49 42.8624 49H17.004C12.9944 49 9.60408 46.0318 9.07416 42.0573L7.20749 28.0573Z" fill="#F55B54"/>
<path fill-rule="evenodd" clip-rule="evenodd" d="M15.1374 17H40.9958C46.0078 17 50.2457 20.7103 50.9081 25.6784L52.7747 39.6784C53.5741 45.6732 48.9104 51 42.8625 51H17.0041C11.992 51 7.7542 47.2897 7.09179 42.3216L5.22512 28.3216C4.42581 22.3268 9.08951 17 15.1374 17ZM15.1374 19C10.2991 19 6.56813 23.2614 7.20758 28.0573L9.07424 42.0573C9.60417 46.0318 12.9944 49 17.0041 49H42.8625C47.7008 49 51.4317 44.7386 50.7923 39.9427L48.9256 25.9427C48.3957 21.9682 45.0054 19 40.9958 19H15.1374Z" fill="#A83C37"/>
<path fill-rule="evenodd" clip-rule="evenodd" d="M15.1373 19C10.299 19 6.56804 23.2614 7.20749 28.0573L9.07416 42.0573C9.34737 44.1064 10.3809 45.8881 11.8677 47.1334C10.9231 46.0056 10.2809 44.608 10.0742 43.0573L8.20749 29.0573C7.56804 24.2614 11.299 20 16.1373 20H41.9957C43.9381 20 45.7351 20.6966 47.132 21.8666C45.6558 20.1039 43.4409 19 40.9957 19H15.1373Z" fill="#FF8B86"/>
<path d="M10.9562 33.7835C11.5566 29.8809 14.9146 27 18.8632 27H28.3021C29.4215 27 30.5283 26.7651 31.5512 26.3105L37.4484 23.6895C38.4713 23.2349 39.5782 23 40.6975 23H48.8624C53.7007 23 57.4316 27.2614 56.7922 32.0573L54.9255 46.0573C54.3956 50.0318 51.0053 53 46.9957 53H17.3247C12.4216 53 8.67219 48.6296 9.41774 43.7835L10.9562 33.7835Z" fill="#F3DFB7"/>
<path fill-rule="evenodd" clip-rule="evenodd" d="M58.7748 32.3216L56.9082 46.3216C56.2458 51.2897 52.0079 55 46.9959 55H17.3249C11.196 55 6.50925 49.537 7.44118 43.4794L8.97965 33.4794C9.73016 28.6011 13.9277 25 18.8634 25H28.3023C29.1418 25 29.972 24.8238 30.7391 24.4829L36.6363 21.8619C37.9149 21.2936 39.2985 21 40.6977 21H48.8625C54.9104 21 59.5741 26.3268 58.7748 32.3216ZM18.8634 27C14.9148 27 11.5568 29.8809 10.9564 33.7835L9.41793 43.7835C8.67238 48.6296 12.4218 53 17.3249 53H46.9959C51.0055 53 54.3958 50.0318 54.9257 46.0573L56.7924 32.0573C57.4318 27.2614 53.7009 23 48.8625 23H40.6977C39.5784 23 38.4715 23.2349 37.4486 23.6895L31.5514 26.3105C30.5285 26.7651 29.4216 27 28.3023 27H18.8634Z" fill="#826E47"/>
<path d="M50 32C50 33.1046 49.1046 34 48 34C46.8954 34 46 33.1046 46 32C46 30.8954 46.8954 30 48 30C49.1046 30 50 30.8954 50 32Z" fill="#F3DFB7"/>
<path fill-rule="evenodd" clip-rule="evenodd" d="M52 32C52 34.2091 50.2091 36 48 36C45.7909 36 44 34.2091 44 32C44 29.7909 45.7909 28 48 28C50.2091 28 52 29.7909 52 32ZM48 34C49.1046 34 50 33.1046 50 32C50 30.8954 49.1046 30 48 30C46.8954 30 46 30.8954 46 32C46 33.1046 46.8954 34 48 34Z" fill="#826E47"/>
<path fill-rule="evenodd" clip-rule="evenodd" d="M49.8232 31.1768C49.5722 31.0632 49.2935 31 49 31C47.8954 31 47 31.8954 47 33C47 33.2935 47.0632 33.5722 47.1768 33.8232C46.4828 33.5094 46 32.8111 46 32C46 30.8954 46.8954 30 48 30C48.8111 30 49.5094 30.4828 49.8232 31.1768Z" fill="#FFF3DC"/>
<path fill-rule="evenodd" clip-rule="evenodd" d="M18.8632 27C14.9146 27 11.5566 29.8809 10.9562 33.7835L9.41774 43.7835C8.97151 46.684 10.1355 49.4141 12.1933 51.1387C10.7755 49.4474 10.0501 47.1733 10.4177 44.7835L11.9562 34.7835C12.5566 30.8809 15.9146 28 19.8632 28H29.3021C30.4215 28 31.5283 27.7651 32.5512 27.3105L38.4484 24.6895C39.4713 24.2349 40.5782 24 41.6975 24H49.8624C51.829 24 53.6127 24.7041 54.9943 25.862C53.5356 24.1218 51.3447 23 48.8624 23H40.6975C39.5782 23 38.4713 23.2349 37.4484 23.6895L31.5512 26.3105C30.5283 26.7651 29.4215 27 28.3021 27H18.8632Z" fill="#FFF3DC"/>
<path fill-rule="evenodd" clip-rule="evenodd" d="M15 46C15 45.4477 15.4477 45 16 45H28C28.5523 45 29 45.4477 29 46C29 46.5523 28.5523 47 28 47H16C15.4477 47 15 46.5523 15 46Z" fill="#826E47"/>
<path fill-rule="evenodd" clip-rule="evenodd" d="M16 42C16 41.4477 16.4477 41 17 41H29C29.5523 41 30 41.4477 30 42C30 42.5523 29.5523 43 29 43H17C16.4477 43 16 42.5523 16 42Z" fill="#826E47"/>
<path fill-rule="evenodd" clip-rule="evenodd" d="M17 38C17 37.4477 17.4477 37 18 37H22C22.5523 37 23 37.4477 23 38C23 38.5523 22.5523 39 22 39H18C17.4477 39 17 38.5523 17 38Z" fill="#826E47"/>
</svg>
